<?xml version="1.0" standalone="no"?><!DOCTYPE svg PUBLIC "-//W3C//DTD SVG 1.1//EN" "http://www.w3.org/Graphics/SVG/1.1/DTD/svg11.dtd"><svg t="1700098428470" class="icon" viewBox="0 0 1024 1024" version="1.1" xmlns="http://www.w3.org/2000/svg" p-id="4075" xmlns:xlink="http://www.w3.org/1999/xlink" width="200" height="200"><path d="M512 0a512 512 0 1 1 0 1024A512 512 0 0 1 512 0z m87.552 185.173333c-55.296 18.261333-81.92 69.802667-65.962667 128.341334l5.717334 21.589333c-11.946667 2.56-23.722667 5.973333-35.157334 10.410667-54.016 20.821333-96.853333 66.986667-111.872 120.576a163.925333 163.925333 0 0 0-5.461333 58.709333 147.114667 147.114667 0 0 0 61.44 107.264 129.621333 129.621333 0 0 0 110.08 18.773333c26.965333-7.338667 50.858667-23.296 67.925333-45.397333 26.453333-34.389333 34.218667-79.701333 22.186667-127.488-4.437333-17.322667-9.984-36.693333-15.36-55.296l-5.717333-20.309333c22.869333 5.717333 43.946667 17.066667 61.269333 33.109333 59.733333 55.808 71.253333 151.893333 26.794667 223.573333-39.082667 62.890667-115.2 103.509333-193.792 103.509334a240.810667 240.810667 0 0 1-240.64-240.554667 236.458667 236.458667 0 0 1 104.362666-196.266667c14.165333-9.472 29.269333-17.578667 45.141334-23.893333A33.792 33.792 0 0 0 405.333333 238.933333 308.821333 308.821333 0 0 0 271.36 343.722667a305.664 305.664 0 0 0-58.026667 178.346666 308.565333 308.565333 0 0 0 308.309334 308.138667c101.546667 0 200.106667-53.162667 251.221333-135.594667 62.208-100.096 46.08-229.888-38.058667-308.565333a212.138667 212.138667 0 0 0-126.72-55.296 4754.858667 4754.858667 0 0 0-9.216-34.986667 47.616 47.616 0 0 1-0.853333-25.344 33.962667 33.962667 0 0 1 40.874667-22.869333c4.778667 1.194667 9.216 3.413333 13.056 6.4 4.181333 3.072 7.338667 7.082667 11.093333 10.581333a33.877333 33.877333 0 0 0 53.162667-40.192l-0.682667-1.109333a69.717333 69.717333 0 0 0-15.36-17.578667 107.178667 107.178667 0 0 0-56.917333-24.917333 102.570667 102.570667 0 0 0-43.690667 4.522667z m-42.922667 215.381334c3.584 13.226667 7.509333 27.050667 11.52 40.704 5.205333 18.432 10.496 36.693333 14.677334 53.333333 4.949333 19.285333 7.082667 47.104-10.24 69.802667a60.842667 60.842667 0 0 1-32.256 21.333333 62.293333 62.293333 0 0 1-53.504-9.216 78.848 78.848 0 0 1-32.597334-57.514667 95.573333 95.573333 0 0 1 3.157334-34.645333c9.386667-33.365333 36.608-62.378667 71.082666-75.690667 9.216-3.584 18.688-6.229333 28.16-8.106666z" fill="#fc3d49" p-id="4076"></path></svg>