<?xml version="1.0" standalone="no"?><!DOCTYPE svg PUBLIC "-//W3C//DTD SVG 1.1//EN" "http://www.w3.org/Graphics/SVG/1.1/DTD/svg11.dtd"><svg t="1700119353853" class="icon" viewBox="0 0 1024 1024" version="1.1" xmlns="http://www.w3.org/2000/svg" p-id="1789" xmlns:xlink="http://www.w3.org/1999/xlink" width="200" height="200"><path d="M98.583851 3.180124h190.807453a31.801242 31.801242 0 0 1 31.801243 31.801242v387.021118L902.201242 10.176398l11.130435-7.632299A31.801242 31.801242 0 0 1 957.217391 31.801242v960.397516a31.801242 31.801242 0 0 1-43.885714 29.257143l-11.130435-7.632299L321.192547 601.997516V989.018634a31.801242 31.801242 0 0 1-31.801243 31.801242H98.583851a31.801242 31.801242 0 0 1-31.801242-31.801242v-954.037268a31.801242 31.801242 0 0 1 31.801242-31.801242z" p-id="1790"></path></svg>