<?xml version="1.0" standalone="no"?><!DOCTYPE svg PUBLIC "-//W3C//DTD SVG 1.1//EN" "http://www.w3.org/Graphics/SVG/1.1/DTD/svg11.dtd"><svg t="1700123049202" class="icon" viewBox="0 0 1024 1024" version="1.1" xmlns="http://www.w3.org/2000/svg" p-id="5105" xmlns:xlink="http://www.w3.org/1999/xlink" width="200" height="200"><path d="M958.3 335.74h-87.81a398.4 398.4 0 0 1 42.75 180.11c0 220.92-179.08 400-400 400a398.08 398.08 0 0 1-211-60.11H434.4a40 40 0 0 0 40-40 40 40 0 0 0-40-40h-220a40 40 0 0 0-40 40v40h-0.08a478.47 478.47 0 0 0 338.92 140.11c265.1 0 480-214.9 480-480a478.67 478.67 0 0 0-34.94-180.11zM513.24 115.85a398.16 398.16 0 0 1 210.63 59.89H592.4a40 40 0 0 0-40 40 40 40 0 0 0 40 40h220a40 40 0 0 0 40-40v-40h-0.4A478.5 478.5 0 0 0 513.24 35.85c-265.09 0-480 214.91-480 480A478.65 478.65 0 0 0 68.1 695.74h87.79a398.22 398.22 0 0 1-42.65-179.89c0-220.91 179.09-400 400-400z" fill="#312626" p-id="5106"></path><path d="M513.24 365.85c-138.07 0-250 67.16-250 150s111.93 150 250 150 250-67.15 250-150-111.92-150-250-150z m0 210a60 60 0 1 1 60-60 60 60 0 0 1-60 60z" fill="#312626" p-id="5107"></path></svg>